<?xml version="1.0" encoding="UTF-8" standalone="no"?>
<!DOCTYPE svg PUBLIC "-//W3C//DTD SVG 1.1//EN"
 "http://www.w3.org/Graphics/SVG/1.1/DTD/svg11.dtd">
<!-- Generated by graphviz version 2.36.0 (20140111.2315)
 -->
<!-- Title: %3 Pages: 1 -->
<svg width="1690pt" height="2952pt"
 viewBox="0.00 0.00 1690.00 2952.00" xmlns="http://www.w3.org/2000/svg" xmlns:xlink="http://www.w3.org/1999/xlink">
<g id="graph0" class="graph" transform="scale(1 1) rotate(0) translate(4 2948)">
<title>%3</title>
<polygon fill="white" stroke="none" points="-4,4 -4,-2948 1686,-2948 1686,4 -4,4"/>
<!-- unhappy -->
<g id="node1" class="node"><title>unhappy</title>
<path fill="none" stroke="black" d="M501,-2944C501,-2944 361,-2944 361,-2944 355,-2944 349,-2938 349,-2932 349,-2932 349,-2920 349,-2920 349,-2914 355,-2908 361,-2908 361,-2908 501,-2908 501,-2908 507,-2908 513,-2914 513,-2920 513,-2920 513,-2932 513,-2932 513,-2938 507,-2944 501,-2944"/>
<text text-anchor="middle" x="431" y="-2922.3" font-family="Times,serif" font-size="14.00">React te pone triste.</text>
</g>
<!-- are_you_using_react_boilerplates -->
<g id="node2" class="node"><title>are_you_using_react_boilerplates</title>
<polygon fill="none" stroke="black" points="431,-2870 179,-2817 431,-2764 683,-2817 431,-2870"/>
<text text-anchor="middle" x="431" y="-2828.3" font-family="Times,serif" font-size="14.00">¿Estás aprendiendo</text>
<text text-anchor="middle" x="431" y="-2813.3" font-family="Times,serif" font-size="14.00"> &#160;&#160;&#160;React haciendo copia de </text>
<text text-anchor="middle" x="431" y="-2798.3" font-family="Times,serif" font-size="14.00"> &#160;&#160;&#160;plantillas y proyectos modelo?</text>
</g>
<!-- unhappy&#45;&gt;are_you_using_react_boilerplates -->
<g id="edge1" class="edge"><title>unhappy&#45;&gt;are_you_using_react_boilerplates</title>
<path fill="none" stroke="black" d="M431,-2907.81C431,-2900.1 431,-2890.49 431,-2880.44"/>
<polygon fill="black" stroke="black" points="434.5,-2880.3 431,-2870.3 427.5,-2880.3 434.5,-2880.3"/>
</g>
<!-- boilerplates_dont_teach -->
<g id="node3" class="node"><title>boilerplates_dont_teach</title>
<polygon fill="none" stroke="black" points="412,-2712 0,-2712 0,-2434 412,-2434 412,-2712"/>
<text text-anchor="middle" x="206" y="-2696.8" font-family="Times,serif" font-size="14.00">Aprendiendo React copiando plantillas</text>
<text text-anchor="middle" x="206" y="-2681.8" font-family="Times,serif" font-size="14.00"> &#160;&#160;&#160;es como aprender a cocinar comiendo en </text>
<text text-anchor="middle" x="206" y="-2666.8" font-family="Times,serif" font-size="14.00"> &#160;&#160;&#160;restaurantes de lujo. No funciona. Tienes que</text>
<text text-anchor="middle" x="206" y="-2651.8" font-family="Times,serif" font-size="14.00"> &#160;&#160;&#160;empezar desde lo básico e ignorar el miedo de</text>
<text text-anchor="middle" x="206" y="-2636.8" font-family="Times,serif" font-size="14.00"> &#160;&#160;&#160;lo que podrías estar perdiendo. Es infundado. </text>
<text text-anchor="middle" x="206" y="-2621.8" font-family="Times,serif" font-size="14.00"> &#160;&#160;&#160;La gente crea estos proyectos modelo para </text>
<text text-anchor="middle" x="206" y="-2606.8" font-family="Times,serif" font-size="14.00"> &#160;&#160;&#160;hacer alarde de lo que han creado o aprendido,</text>
<text text-anchor="middle" x="206" y="-2591.8" font-family="Times,serif" font-size="14.00"> &#160;&#160;&#160;no para ayudarte a aprender. Éstos han sido </text>
<text text-anchor="middle" x="206" y="-2576.8" font-family="Times,serif" font-size="14.00"> &#160;&#160;&#160;creados por y para usuarios avanzados, </text>
<text text-anchor="middle" x="206" y="-2561.8" font-family="Times,serif" font-size="14.00"> &#160;&#160;&#160;y en muchos casos son más experimentales</text>
<text text-anchor="middle" x="206" y="-2546.8" font-family="Times,serif" font-size="14.00"> &#160;&#160;&#160;de lo que se quisiera admitir.</text>
<text text-anchor="middle" x="206" y="-2531.8" font-family="Times,serif" font-size="14.00"> &#160;&#160;&#160;Las plantillas y proyectos modelo compiten </text>
<text text-anchor="middle" x="206" y="-2516.8" font-family="Times,serif" font-size="14.00"> &#160;&#160;&#160;por atención que lleva a más relleno.</text>
<text text-anchor="middle" x="206" y="-2501.8" font-family="Times,serif" font-size="14.00"> &#160;&#160;&#160;Si realmente te interesa React, apréndelo </text>
<text text-anchor="middle" x="206" y="-2486.8" font-family="Times,serif" font-size="14.00"> &#160;&#160;&#160;en el orden que Pete Hunt lo describe en su guía:</text>
<text text-anchor="middle" x="206" y="-2471.8" font-family="Times,serif" font-size="14.00"> &#160;&#160;&#160;https://github.com/petehunt/react&#45;howto.</text>
<text text-anchor="middle" x="206" y="-2456.8" font-family="Times,serif" font-size="14.00"> &#160;&#160;&#160;Sólo comienza a prestarle atención a las plantillas</text>
<text text-anchor="middle" x="206" y="-2441.8" font-family="Times,serif" font-size="14.00"> &#160;&#160;&#160;cuando estés en condiciones de crear la tuya propia.</text>
</g>
<!-- are_you_using_react_boilerplates&#45;&gt;boilerplates_dont_teach -->
<g id="edge2" class="edge"><title>are_you_using_react_boilerplates&#45;&gt;boilerplates_dont_teach</title>
<path fill="none" stroke="black" d="M390.515,-2772.46C376.154,-2757.01 359.094,-2738.66 341.235,-2719.45"/>
<polygon fill="black" stroke="black" points="343.728,-2716.99 334.356,-2712.05 338.602,-2721.76 343.728,-2716.99"/>
<text text-anchor="middle" x="371.5" y="-2734.3" font-family="Times,serif" font-size="14.00">sí</text>
</g>
<!-- steal_from_boilerplates -->
<g id="node4" class="node"><title>steal_from_boilerplates</title>
<polygon fill="none" stroke="black" points="884,-2659.5 430,-2659.5 430,-2486.5 884,-2486.5 884,-2659.5"/>
<text text-anchor="middle" x="657" y="-2644.3" font-family="Times,serif" font-size="14.00">Mientras que las plantillas no son buenos</text>
<text text-anchor="middle" x="657" y="-2629.3" font-family="Times,serif" font-size="14.00"> &#160;&#160;&#160;para aprender las tecnologías que ellos combinan,</text>
<text text-anchor="middle" x="657" y="-2614.3" font-family="Times,serif" font-size="14.00"> &#160;&#160;&#160;son buenos para aprender cómo estas tecnologías</text>
<text text-anchor="middle" x="657" y="-2599.3" font-family="Times,serif" font-size="14.00"> &#160;&#160;&#160;pueden ser usados en conjunto *después* </text>
<text text-anchor="middle" x="657" y="-2584.3" font-family="Times,serif" font-size="14.00"> &#160;&#160;&#160;que te sientas cómodo con cada uno de ellos </text>
<text text-anchor="middle" x="657" y="-2569.3" font-family="Times,serif" font-size="14.00"> &#160;&#160;&#160;independientemente. Es una buena forma de descubrir</text>
<text text-anchor="middle" x="657" y="-2554.3" font-family="Times,serif" font-size="14.00"> &#160;&#160;&#160;nuevas tecnologías pero no debes sentirte obligado</text>
<text text-anchor="middle" x="657" y="-2539.3" font-family="Times,serif" font-size="14.00"> &#160;&#160;&#160;a utilizarlas.</text>
<text text-anchor="middle" x="657" y="-2524.3" font-family="Times,serif" font-size="14.00"> &#160;&#160;&#160;No te rindas con las plantillas completamente. Sólo</text>
<text text-anchor="middle" x="657" y="-2509.3" font-family="Times,serif" font-size="14.00"> &#160;&#160;&#160;ten una mente abierta que una plantilla es </text>
<text text-anchor="middle" x="657" y="-2494.3" font-family="Times,serif" font-size="14.00"> &#160;&#160;&#160;una bolsa de trucos, no una base sólida para tu aplicación.</text>
</g>
<!-- are_you_using_react_boilerplates&#45;&gt;steal_from_boilerplates -->
<g id="edge3" class="edge"><title>are_you_using_react_boilerplates&#45;&gt;steal_from_boilerplates</title>
<path fill="none" stroke="black" d="M471.665,-2772.46C498.954,-2743.24 535.951,-2703.62 569.714,-2667.47"/>
<polygon fill="black" stroke="black" points="572.597,-2669.51 576.865,-2659.81 567.481,-2664.73 572.597,-2669.51"/>
<text text-anchor="middle" x="520" y="-2734.3" font-family="Times,serif" font-size="14.00">no</text>
</g>
<!-- are_you_using_flux -->
<g id="node5" class="node"><title>are_you_using_flux</title>
<polygon fill="none" stroke="black" points="484,-2396 282,-2343 484,-2290 686,-2343 484,-2396"/>
<text text-anchor="middle" x="484" y="-2354.3" font-family="Times,serif" font-size="14.00">¿Estás usando </text>
<text text-anchor="middle" x="484" y="-2339.3" font-family="Times,serif" font-size="14.00"> &#160;&#160;&#160;alguna librería de Flux </text>
<text text-anchor="middle" x="484" y="-2324.3" font-family="Times,serif" font-size="14.00"> &#160;&#160;&#160;(o Redux)?</text>
</g>
<!-- boilerplates_dont_teach&#45;&gt;are_you_using_flux -->
<g id="edge4" class="edge"><title>boilerplates_dont_teach&#45;&gt;are_you_using_flux</title>
<path fill="none" stroke="black" d="M374.526,-2433.78C393.557,-2418.18 411.814,-2403.2 427.779,-2390.11"/>
<polygon fill="black" stroke="black" points="430.398,-2392.49 435.911,-2383.44 425.959,-2387.08 430.398,-2392.49"/>
</g>
<!-- steal_from_boilerplates&#45;&gt;are_you_using_flux -->
<g id="edge5" class="edge"><title>steal_from_boilerplates&#45;&gt;are_you_using_flux</title>
<path fill="none" stroke="black" d="M592.089,-2486.45C568.89,-2455.88 543.477,-2422.39 523.124,-2395.56"/>
<polygon fill="black" stroke="black" points="525.811,-2393.31 516.978,-2387.46 520.235,-2397.54 525.811,-2393.31"/>
</g>
<!-- is_too_much_flux -->
<g id="node6" class="node"><title>is_too_much_flux</title>
<polygon fill="none" stroke="black" points="324,-2223 87,-2170 324,-2117 561,-2170 324,-2223"/>
<text text-anchor="middle" x="324" y="-2181.3" font-family="Times,serif" font-size="14.00">¿Te obliga a agregar </text>
<text text-anchor="middle" x="324" y="-2166.3" font-family="Times,serif" font-size="14.00"> &#160;&#160;&#160;un montón de código </text>
<text text-anchor="middle" x="324" y="-2151.3" font-family="Times,serif" font-size="14.00"> &#160;&#160;&#160;sin ninguna ganancia obvia?</text>
</g>
<!-- are_you_using_flux&#45;&gt;is_too_much_flux -->
<g id="edge6" class="edge"><title>are_you_using_flux&#45;&gt;is_too_much_flux</title>
<path fill="none" stroke="black" d="M444.86,-2300.17C422.725,-2276.51 394.887,-2246.76 371.508,-2221.77"/>
<polygon fill="black" stroke="black" points="373.795,-2219.1 364.407,-2214.19 368.684,-2223.88 373.795,-2219.1"/>
<text text-anchor="middle" x="425.5" y="-2260.3" font-family="Times,serif" font-size="14.00">sí</text>
</g>
<!-- is_not_enough_flux -->
<g id="node7" class="node"><title>is_not_enough_flux</title>
<polygon fill="none" stroke="black" points="929,-2238 579,-2170 929,-2102 1279,-2170 929,-2238"/>
<text text-anchor="middle" x="929" y="-2188.8" font-family="Times,serif" font-size="14.00">¿Tienes varios componentes </text>
<text text-anchor="middle" x="929" y="-2173.8" font-family="Times,serif" font-size="14.00"> &#160;&#160;&#160;llenos de estados en la parte superior de tu </text>
<text text-anchor="middle" x="929" y="-2158.8" font-family="Times,serif" font-size="14.00"> &#160;&#160;&#160;jerarquía de componentes que son </text>
<text text-anchor="middle" x="929" y="-2143.8" font-family="Times,serif" font-size="14.00"> &#160;&#160;&#160;frecuentemente la causa de errores?</text>
</g>
<!-- are_you_using_flux&#45;&gt;is_not_enough_flux -->
<g id="edge7" class="edge"><title>are_you_using_flux&#45;&gt;is_not_enough_flux</title>
<path fill="none" stroke="black" d="M564.586,-2311.03C631.119,-2285.47 726.707,-2248.74 803.291,-2219.31"/>
<polygon fill="black" stroke="black" points="804.931,-2222.43 813.01,-2215.57 802.42,-2215.89 804.931,-2222.43"/>
<text text-anchor="middle" x="716" y="-2260.3" font-family="Times,serif" font-size="14.00">no</text>
</g>
<!-- remove_flux -->
<g id="node8" class="node"><title>remove_flux</title>
<polygon fill="none" stroke="black" points="576,-2049.5 286,-2049.5 286,-1966.5 576,-1966.5 576,-2049.5"/>
<text text-anchor="middle" x="431" y="-2034.3" font-family="Times,serif" font-size="14.00">Quita la librería Flux.</text>
<text text-anchor="middle" x="431" y="-2019.3" font-family="Times,serif" font-size="14.00"> &#160;&#160;&#160;Obtiene experiencia estructurando </text>
<text text-anchor="middle" x="431" y="-2004.3" font-family="Times,serif" font-size="14.00"> &#160;&#160;&#160;aplicaciones utilizando sólo React </text>
<text text-anchor="middle" x="431" y="-1989.3" font-family="Times,serif" font-size="14.00"> &#160;&#160;&#160;leyendo “Thinking in React”</text>
<text text-anchor="middle" x="431" y="-1974.3" font-family="Times,serif" font-size="14.00"> &#160;&#160;&#160;en la documentación oficial.</text>
</g>
<!-- is_too_much_flux&#45;&gt;remove_flux -->
<g id="edge8" class="edge"><title>is_too_much_flux&#45;&gt;remove_flux</title>
<path fill="none" stroke="black" d="M354.376,-2123.58C368.06,-2103.12 384.244,-2078.92 398.204,-2058.04"/>
<polygon fill="black" stroke="black" points="401.185,-2059.88 403.835,-2049.62 395.367,-2055.99 401.185,-2059.88"/>
<text text-anchor="middle" x="397.5" y="-2072.3" font-family="Times,serif" font-size="14.00">sí</text>
</g>
<!-- are_you_using_bundler -->
<g id="node9" class="node"><title>are_you_using_bundler</title>
<polygon fill="none" stroke="black" points="652,-1928 412.5,-1875 652,-1822 891.5,-1875 652,-1928"/>
<text text-anchor="middle" x="652" y="-1886.3" font-family="Times,serif" font-size="14.00">¿Estás usando un </text>
<text text-anchor="middle" x="652" y="-1871.3" font-family="Times,serif" font-size="14.00"> &#160;&#160;&#160;empaquetador Javascript</text>
<text text-anchor="middle" x="652" y="-1856.3" font-family="Times,serif" font-size="14.00"> &#160;&#160;&#160;(p.ej. Webpack, Browserify)?</text>
</g>
<!-- is_too_much_flux&#45;&gt;are_you_using_bundler -->
<g id="edge9" class="edge"><title>is_too_much_flux&#45;&gt;are_you_using_bundler</title>
<path fill="none" stroke="black" d="M431.383,-2141C483.626,-2122.62 543.864,-2093.69 585,-2050 614.512,-2018.66 631.443,-1972.92 640.9,-1936.2"/>
<polygon fill="black" stroke="black" points="644.394,-1936.65 643.373,-1926.1 637.595,-1934.98 644.394,-1936.65"/>
<text text-anchor="middle" x="641" y="-2004.3" font-family="Times,serif" font-size="14.00">no</text>
</g>
<!-- is_not_enough_flux&#45;&gt;are_you_using_bundler -->
<g id="edge11" class="edge"><title>is_not_enough_flux&#45;&gt;are_you_using_bundler</title>
<path fill="none" stroke="black" d="M798.751,-2127.28C760.066,-2109.11 720.889,-2083.98 694,-2050 668.989,-2018.39 658.54,-1974.15 654.318,-1938.19"/>
<polygon fill="black" stroke="black" points="657.754,-1937.39 653.242,-1927.8 650.791,-1938.11 657.754,-1937.39"/>
<text text-anchor="middle" x="703" y="-2004.3" font-family="Times,serif" font-size="14.00">no</text>
</g>
<!-- add_flux -->
<g id="node10" class="node"><title>add_flux</title>
<polygon fill="none" stroke="black" points="1045,-2042 721,-2042 721,-1974 1045,-1974 1045,-2042"/>
<text text-anchor="middle" x="883" y="-2026.8" font-family="Times,serif" font-size="14.00">Considera agregar alguna librería de Flux.</text>
<text text-anchor="middle" x="883" y="-2011.8" font-family="Times,serif" font-size="14.00"> &#160;&#160;&#160;Puede ayudarte a externalizar el estado</text>
<text text-anchor="middle" x="883" y="-1996.8" font-family="Times,serif" font-size="14.00"> &#160;&#160;&#160;compartido entre varios componentes y </text>
<text text-anchor="middle" x="883" y="-1981.8" font-family="Times,serif" font-size="14.00"> &#160;&#160;&#160;actualizarlos consistentemente.</text>
</g>
<!-- is_not_enough_flux&#45;&gt;add_flux -->
<g id="edge10" class="edge"><title>is_not_enough_flux&#45;&gt;add_flux</title>
<path fill="none" stroke="black" d="M910.687,-2105.3C905.542,-2087.41 900.069,-2068.37 895.36,-2051.99"/>
<polygon fill="black" stroke="black" points="898.663,-2050.81 892.536,-2042.17 891.936,-2052.75 898.663,-2050.81"/>
<text text-anchor="middle" x="909.5" y="-2072.3" font-family="Times,serif" font-size="14.00">sí</text>
</g>
<!-- remove_flux&#45;&gt;are_you_using_bundler -->
<g id="edge13" class="edge"><title>remove_flux&#45;&gt;are_you_using_bundler</title>
<path fill="none" stroke="black" d="M499.412,-1966.45C524.811,-1951.39 553.696,-1934.27 579.451,-1919"/>
<polygon fill="black" stroke="black" points="581.239,-1922.01 588.056,-1913.9 577.669,-1915.99 581.239,-1922.01"/>
</g>
<!-- are_you_working_on_production_app_with_bundler -->
<g id="node11" class="node"><title>are_you_working_on_production_app_with_bundler</title>
<polygon fill="none" stroke="black" points="494,-1770 205.5,-1732 494,-1694 782.5,-1732 494,-1770"/>
<text text-anchor="middle" x="494" y="-1735.8" font-family="Times,serif" font-size="14.00">¿Estás trabajando </text>
<text text-anchor="middle" x="494" y="-1720.8" font-family="Times,serif" font-size="14.00"> &#160;&#160;&#160;en una aplicación para producción?</text>
</g>
<!-- are_you_using_bundler&#45;&gt;are_you_working_on_production_app_with_bundler -->
<g id="edge14" class="edge"><title>are_you_using_bundler&#45;&gt;are_you_working_on_production_app_with_bundler</title>
<path fill="none" stroke="black" d="M605.023,-1832.08C583.715,-1813.06 558.667,-1790.71 537.761,-1772.05"/>
<polygon fill="black" stroke="black" points="540.051,-1769.41 530.26,-1765.36 535.391,-1774.63 540.051,-1769.41"/>
<text text-anchor="middle" x="579.5" y="-1792.3" font-family="Times,serif" font-size="14.00">sí</text>
</g>
<!-- are_you_working_on_production_app_without_bundler -->
<g id="node12" class="node"><title>are_you_working_on_production_app_without_bundler</title>
<polygon fill="none" stroke="black" points="1090,-1770 801.5,-1732 1090,-1694 1378.5,-1732 1090,-1770"/>
<text text-anchor="middle" x="1090" y="-1735.8" font-family="Times,serif" font-size="14.00">¿Estás trabajando </text>
<text text-anchor="middle" x="1090" y="-1720.8" font-family="Times,serif" font-size="14.00"> &#160;&#160;&#160;en una aplicación para producción?</text>
</g>
<!-- are_you_using_bundler&#45;&gt;are_you_working_on_production_app_without_bundler -->
<g id="edge15" class="edge"><title>are_you_using_bundler&#45;&gt;are_you_working_on_production_app_without_bundler</title>
<path fill="none" stroke="black" d="M747.85,-1843.14C822.424,-1819.14 925.225,-1786.04 998.635,-1762.41"/>
<polygon fill="black" stroke="black" points="999.893,-1765.68 1008.34,-1759.29 997.748,-1759.02 999.893,-1765.68"/>
<text text-anchor="middle" x="919" y="-1792.3" font-family="Times,serif" font-size="14.00">no</text>
</g>
<!-- add_flux&#45;&gt;are_you_using_bundler -->
<g id="edge12" class="edge"><title>add_flux&#45;&gt;are_you_using_bundler</title>
<path fill="none" stroke="black" d="M824.709,-1973.94C795.022,-1957.11 758.588,-1936.45 726.849,-1918.45"/>
<polygon fill="black" stroke="black" points="728.456,-1915.33 718.031,-1913.45 725.003,-1921.42 728.456,-1915.33"/>
</g>
<!-- do_you_know_es2015 -->
<g id="node13" class="node"><title>do_you_know_es2015</title>
<polygon fill="none" stroke="black" points="841,-1476 612.5,-1423 841,-1370 1069.5,-1423 841,-1476"/>
<text text-anchor="middle" x="841" y="-1434.3" font-family="Times,serif" font-size="14.00">¿Ƭe sientes cómodo usando</text>
<text text-anchor="middle" x="841" y="-1419.3" font-family="Times,serif" font-size="14.00"> &#160;&#160;&#160;funcionalidades de ES2015</text>
<text text-anchor="middle" x="841" y="-1404.3" font-family="Times,serif" font-size="14.00"> &#160;&#160;&#160;(p.ej. clases y fat arrows)?</text>
</g>
<!-- are_you_working_on_production_app_with_bundler&#45;&gt;do_you_know_es2015 -->
<g id="edge16" class="edge"><title>are_you_working_on_production_app_with_bundler&#45;&gt;do_you_know_es2015</title>
<path fill="none" stroke="black" d="M458.232,-1698.62C443.719,-1683.1 428.605,-1663.26 421,-1642 401.842,-1588.43 385.235,-1558.24 421,-1514 452.419,-1475.13 566.075,-1452.3 667.239,-1439.35"/>
<polygon fill="black" stroke="black" points="667.813,-1442.81 677.3,-1438.09 666.943,-1435.86 667.813,-1442.81"/>
<text text-anchor="middle" x="427.5" y="-1574.3" font-family="Times,serif" font-size="14.00">sí</text>
</g>
<!-- remove_bundler -->
<g id="node14" class="node"><title>remove_bundler</title>
<polygon fill="none" stroke="black" points="874.25,-1642 443.75,-1642 443.75,-1514 874.25,-1514 874.25,-1642"/>
<text text-anchor="middle" x="659" y="-1626.8" font-family="Times,serif" font-size="14.00">No hay necesidad de utilizar un empaquetador</text>
<text text-anchor="middle" x="659" y="-1611.8" font-family="Times,serif" font-size="14.00"> &#160;&#160;&#160;si sólo estás aprendiendo React.</text>
<text text-anchor="middle" x="659" y="-1596.8" font-family="Times,serif" font-size="14.00"> &#160;&#160;&#160;Copia https://github.com/jarsbe/react&#45;simple</text>
<text text-anchor="middle" x="659" y="-1581.8" font-family="Times,serif" font-size="14.00"> &#160;&#160;&#160;y comienza a hackear sin ningún paso de construcción.</text>
<text text-anchor="middle" x="659" y="-1566.8" font-family="Times,serif" font-size="14.00"> &#160;&#160;&#160;Usa las etiquetas &lt;script&gt; hasta que te sientas </text>
<text text-anchor="middle" x="659" y="-1551.8" font-family="Times,serif" font-size="14.00"> &#160;&#160;&#160;lo suficientemente confortable con React y </text>
<text text-anchor="middle" x="659" y="-1536.8" font-family="Times,serif" font-size="14.00"> &#160;&#160;&#160;quieras aprender más sobre sistemas modulares y </text>
<text text-anchor="middle" x="659" y="-1521.8" font-family="Times,serif" font-size="14.00"> &#160;&#160;&#160;diferentes empaquetadores.</text>
</g>
<!-- are_you_working_on_production_app_with_bundler&#45;&gt;remove_bundler -->
<g id="edge17" class="edge"><title>are_you_working_on_production_app_with_bundler&#45;&gt;remove_bundler</title>
<path fill="none" stroke="black" d="M529.397,-1698.39C545.113,-1683.91 564.258,-1666.28 582.958,-1649.05"/>
<polygon fill="black" stroke="black" points="585.389,-1651.57 590.373,-1642.22 580.647,-1646.42 585.389,-1651.57"/>
<text text-anchor="middle" x="576" y="-1664.3" font-family="Times,serif" font-size="14.00">no</text>
</g>
<!-- are_you_working_on_production_app_without_bundler&#45;&gt;do_you_know_es2015 -->
<g id="edge19" class="edge"><title>are_you_working_on_production_app_without_bundler&#45;&gt;do_you_know_es2015</title>
<path fill="none" stroke="black" d="M1009.94,-1704.49C978.287,-1690.41 944.038,-1670.07 921,-1642 883.348,-1596.13 904.05,-1569.48 883,-1514 878.747,-1502.79 873.706,-1491.03 868.619,-1479.85"/>
<polygon fill="black" stroke="black" points="871.724,-1478.22 864.351,-1470.61 865.37,-1481.16 871.724,-1478.22"/>
<text text-anchor="middle" x="930" y="-1574.3" font-family="Times,serif" font-size="14.00">no</text>
</g>
<!-- add_bundler -->
<g id="node15" class="node"><title>add_bundler</title>
<polygon fill="none" stroke="black" points="1398.25,-1634.5 947.75,-1634.5 947.75,-1521.5 1398.25,-1521.5 1398.25,-1634.5"/>
<text text-anchor="middle" x="1173" y="-1619.3" font-family="Times,serif" font-size="14.00">Agrega un empaquetador como un paso más</text>
<text text-anchor="middle" x="1173" y="-1604.3" font-family="Times,serif" font-size="14.00"> &#160;&#160;&#160;en el flujo de construcción para </text>
<text text-anchor="middle" x="1173" y="-1589.3" font-family="Times,serif" font-size="14.00"> &#160;&#160;&#160;mantener las dependencias manejables</text>
<text text-anchor="middle" x="1173" y="-1574.3" font-family="Times,serif" font-size="14.00"> &#160;&#160;&#160;y servir el código Javascript eficientemente.</text>
<text text-anchor="middle" x="1173" y="-1559.3" font-family="Times,serif" font-size="14.00"> &#160;&#160;&#160;Usa Page Speed, la herramienta de inspección de Google, </text>
<text text-anchor="middle" x="1173" y="-1544.3" font-family="Times,serif" font-size="14.00"> &#160;&#160;&#160;para medir qué tan bien lo estás haciendo.</text>
<text text-anchor="middle" x="1173" y="-1529.3" font-family="Times,serif" font-size="14.00"> &#160;&#160;&#160;Recuerda minificar y simplificar tu código.</text>
</g>
<!-- are_you_working_on_production_app_without_bundler&#45;&gt;add_bundler -->
<g id="edge18" class="edge"><title>are_you_working_on_production_app_without_bundler&#45;&gt;add_bundler</title>
<path fill="none" stroke="black" d="M1109.04,-1696.13C1117.6,-1680.46 1127.97,-1661.46 1137.86,-1643.36"/>
<polygon fill="black" stroke="black" points="1140.94,-1645.02 1142.66,-1634.56 1134.8,-1641.66 1140.94,-1645.02"/>
<text text-anchor="middle" x="1132.5" y="-1664.3" font-family="Times,serif" font-size="14.00">sí</text>
</g>
<!-- use_es5 -->
<g id="node16" class="node"><title>use_es5</title>
<polygon fill="none" stroke="black" points="998.5,-1194 643.5,-1194 643.5,-1006 998.5,-1006 998.5,-1194"/>
<text text-anchor="middle" x="821" y="-1178.8" font-family="Times,serif" font-size="14.00">Todavía no uses ES2015.</text>
<text text-anchor="middle" x="821" y="-1163.8" font-family="Times,serif" font-size="14.00"> &#160;&#160;&#160;No lo necesitas para poder aprender React.</text>
<text text-anchor="middle" x="821" y="-1148.8" font-family="Times,serif" font-size="14.00"> &#160;&#160;&#160;Librerías de terceros pueden utililizar </text>
<text text-anchor="middle" x="821" y="-1133.8" font-family="Times,serif" font-size="14.00"> &#160;&#160;&#160;la sintaxis ES2015 en su documentación </text>
<text text-anchor="middle" x="821" y="-1118.8" font-family="Times,serif" font-size="14.00"> &#160;&#160;&#160;pero no necesitas librerías de terceros </text>
<text text-anchor="middle" x="821" y="-1103.8" font-family="Times,serif" font-size="14.00"> &#160;&#160;&#160;cuando sólo estás aprendiendo React.</text>
<text text-anchor="middle" x="821" y="-1088.8" font-family="Times,serif" font-size="14.00"> &#160;&#160;&#160;Cuando tengas intenciones de querer </text>
<text text-anchor="middle" x="821" y="-1073.8" font-family="Times,serif" font-size="14.00"> &#160;&#160;&#160;mejorar tu conocimiento de Javascript, </text>
<text text-anchor="middle" x="821" y="-1058.8" font-family="Times,serif" font-size="14.00"> &#160;&#160;&#160;puedes empezar con esta excelente guía</text>
<text text-anchor="middle" x="821" y="-1043.8" font-family="Times,serif" font-size="14.00"> &#160;&#160;&#160;https://leanpub.com/understandinges6/read. </text>
<text text-anchor="middle" x="821" y="-1028.8" font-family="Times,serif" font-size="14.00"> &#160;&#160;&#160;Usa http://babeljs.io/repl para </text>
<text text-anchor="middle" x="821" y="-1013.8" font-family="Times,serif" font-size="14.00"> &#160;&#160;&#160;verificar tus presunciones.</text>
</g>
<!-- do_you_know_es2015&#45;&gt;use_es5 -->
<g id="edge22" class="edge"><title>do_you_know_es2015&#45;&gt;use_es5</title>
<path fill="none" stroke="black" d="M837.787,-1370.43C835.006,-1325.8 830.9,-1259.89 827.445,-1204.43"/>
<polygon fill="black" stroke="black" points="830.923,-1203.97 826.807,-1194.21 823.936,-1204.41 830.923,-1203.97"/>
<text text-anchor="middle" x="845" y="-1340.3" font-family="Times,serif" font-size="14.00">no</text>
</g>
<!-- are_you_using_dangerous_features -->
<g id="node17" class="node"><title>are_you_using_dangerous_features</title>
<polygon fill="none" stroke="black" points="1172,-1318 849,-1265 1172,-1212 1495,-1265 1172,-1318"/>
<text text-anchor="middle" x="1172" y="-1276.3" font-family="Times,serif" font-size="14.00">¿Estás usando funcionalidades </text>
<text text-anchor="middle" x="1172" y="-1261.3" font-family="Times,serif" font-size="14.00"> &#160;&#160;&#160;experimentales del lenguaje que no son </text>
<text text-anchor="middle" x="1172" y="-1246.3" font-family="Times,serif" font-size="14.00"> &#160;&#160;&#160;parte del ES2015 (p.ej. decoradores)?</text>
</g>
<!-- do_you_know_es2015&#45;&gt;are_you_using_dangerous_features -->
<g id="edge23" class="edge"><title>do_you_know_es2015&#45;&gt;are_you_using_dangerous_features</title>
<path fill="none" stroke="black" d="M915.283,-1386.99C964.281,-1363.9 1028.79,-1333.49 1080.89,-1308.94"/>
<polygon fill="black" stroke="black" points="1082.58,-1312.01 1090.13,-1304.59 1079.59,-1305.68 1082.58,-1312.01"/>
<text text-anchor="middle" x="1022.5" y="-1340.3" font-family="Times,serif" font-size="14.00">sí</text>
</g>
<!-- remove_bundler&#45;&gt;do_you_know_es2015 -->
<g id="edge21" class="edge"><title>remove_bundler&#45;&gt;do_you_know_es2015</title>
<path fill="none" stroke="black" d="M734.077,-1513.89C750.991,-1499.67 768.662,-1484.81 784.655,-1471.37"/>
<polygon fill="black" stroke="black" points="786.958,-1474 792.36,-1464.89 782.453,-1468.65 786.958,-1474"/>
</g>
<!-- add_bundler&#45;&gt;do_you_know_es2015 -->
<g id="edge20" class="edge"><title>add_bundler&#45;&gt;do_you_know_es2015</title>
<path fill="none" stroke="black" d="M1052.2,-1521.33C1010.15,-1501.95 963.906,-1480.64 925.439,-1462.91"/>
<polygon fill="black" stroke="black" points="926.891,-1459.73 916.344,-1458.72 923.961,-1466.09 926.891,-1459.73"/>
</g>
<!-- do_you_update_packages_asap -->
<g id="node18" class="node"><title>do_you_update_packages_asap</title>
<polygon fill="none" stroke="black" points="1052,-724 787,-671 1052,-618 1317,-671 1052,-724"/>
<text text-anchor="middle" x="1052" y="-682.3" font-family="Times,serif" font-size="14.00">¿Actualizas tus dependencias a </text>
<text text-anchor="middle" x="1052" y="-667.3" font-family="Times,serif" font-size="14.00"> &#160;&#160;&#160;las nuevas versiones mayores a </text>
<text text-anchor="middle" x="1052" y="-652.3" font-family="Times,serif" font-size="14.00"> &#160;&#160;&#160;medida que van saliendo?</text>
</g>
<!-- use_es5&#45;&gt;do_you_update_packages_asap -->
<g id="edge24" class="edge"><title>use_es5&#45;&gt;do_you_update_packages_asap</title>
<path fill="none" stroke="black" d="M862.351,-1005.65C896.173,-932.196 946.931,-828.201 1000,-742 1003.33,-736.585 1006.97,-731.063 1010.73,-725.615"/>
<polygon fill="black" stroke="black" points="1013.8,-727.331 1016.7,-717.139 1008.08,-723.3 1013.8,-727.331"/>
</g>
<!-- are_you_using_dangerous_features&#45;&gt;do_you_update_packages_asap -->
<g id="edge26" class="edge"><title>are_you_using_dangerous_features&#45;&gt;do_you_update_packages_asap</title>
<path fill="none" stroke="black" d="M1139.55,-1216.82C1105.29,-1163.89 1053.46,-1074.13 1033,-988 1012.23,-900.572 1025.74,-795.92 1038.22,-731.709"/>
<polygon fill="black" stroke="black" points="1041.68,-732.251 1040.2,-721.759 1034.81,-730.88 1041.68,-732.251"/>
<text text-anchor="middle" x="1034" y="-822.3" font-family="Times,serif" font-size="14.00">no</text>
</g>
<!-- can_you_spend_days_on_your_tooling -->
<g id="node19" class="node"><title>can_you_spend_days_on_your_tooling</title>
<polygon fill="none" stroke="black" points="1362,-988 1042,-920 1362,-852 1682,-920 1362,-988"/>
<text text-anchor="middle" x="1362" y="-938.8" font-family="Times,serif" font-size="14.00">¿Puedes invertir días</text>
<text text-anchor="middle" x="1362" y="-923.8" font-family="Times,serif" font-size="14.00"> &#160;&#160;&#160;arreglando tus herramientas cada tanto</text>
<text text-anchor="middle" x="1362" y="-908.8" font-family="Times,serif" font-size="14.00"> &#160;&#160;&#160;debido a errores, incompatibilidades y </text>
<text text-anchor="middle" x="1362" y="-893.8" font-family="Times,serif" font-size="14.00"> &#160;&#160;&#160;cambios de estándar?</text>
</g>
<!-- are_you_using_dangerous_features&#45;&gt;can_you_spend_days_on_your_tooling -->
<g id="edge25" class="edge"><title>are_you_using_dangerous_features&#45;&gt;can_you_spend_days_on_your_tooling</title>
<path fill="none" stroke="black" d="M1198.42,-1216.31C1231.01,-1157.47 1286.67,-1057 1323.88,-989.808"/>
<polygon fill="black" stroke="black" points="1327,-991.41 1328.78,-980.967 1320.87,-988.018 1327,-991.41"/>
<text text-anchor="middle" x="1317.5" y="-1096.3" font-family="Times,serif" font-size="14.00">sí</text>
</g>
<!-- give_it_two_months -->
<g id="node21" class="node"><title>give_it_two_months</title>
<polygon fill="none" stroke="black" points="1163.25,-565.5 690.75,-565.5 690.75,-392.5 1163.25,-392.5 1163.25,-565.5"/>
<text text-anchor="middle" x="927" y="-550.3" font-family="Times,serif" font-size="14.00">Salvo que estemos hablando de React</text>
<text text-anchor="middle" x="927" y="-535.3" font-family="Times,serif" font-size="14.00"> &#160;&#160;&#160;el cuál está testeado seriamente antes de cada versión,</text>
<text text-anchor="middle" x="927" y="-520.3" font-family="Times,serif" font-size="14.00"> &#160;&#160;&#160;considera reducir el ritmo de las actualizaciones.</text>
<text text-anchor="middle" x="927" y="-505.3" font-family="Times,serif" font-size="14.00"> &#160;&#160;&#160;Puedes probar nuevas versiones de las dependencias </text>
<text text-anchor="middle" x="927" y="-490.3" font-family="Times,serif" font-size="14.00"> &#160;&#160;&#160;pero es mejor mantenerlos en una rama de código separado</text>
<text text-anchor="middle" x="927" y="-475.3" font-family="Times,serif" font-size="14.00"> &#160;&#160;&#160;por un tiempo hasta que la comunidad encuentre y arregle </text>
<text text-anchor="middle" x="927" y="-460.3" font-family="Times,serif" font-size="14.00"> &#160;&#160;&#160;los errores más comunes. </text>
<text text-anchor="middle" x="927" y="-445.3" font-family="Times,serif" font-size="14.00"> &#160;&#160;&#160;¡No tomes decisiones basado en el miedo a perderte de algo!</text>
<text text-anchor="middle" x="927" y="-430.3" font-family="Times,serif" font-size="14.00"> &#160;&#160;&#160;Cuando busques documentación anterior no te olvides de </text>
<text text-anchor="middle" x="927" y="-415.3" font-family="Times,serif" font-size="14.00"> &#160;&#160;&#160;buscar las ramas de las versiones en GitHub, p.ej.</text>
<text text-anchor="middle" x="927" y="-400.3" font-family="Times,serif" font-size="14.00"> &#160;&#160;&#160;https://github.com/reactjs/react&#45;router/tree/0.13.x/doc</text>
</g>
<!-- do_you_update_packages_asap&#45;&gt;give_it_two_months -->
<g id="edge30" class="edge"><title>do_you_update_packages_asap&#45;&gt;give_it_two_months</title>
<path fill="none" stroke="black" d="M1021.74,-624.006C1011.81,-608.905 1000.37,-591.529 988.966,-574.189"/>
<polygon fill="black" stroke="black" points="991.795,-572.12 983.375,-565.69 985.947,-575.967 991.795,-572.12"/>
<text text-anchor="middle" x="1010.5" y="-588.3" font-family="Times,serif" font-size="14.00">sí</text>
</g>
<!-- consider_updating_react -->
<g id="node22" class="node"><title>consider_updating_react</title>
<polygon fill="none" stroke="black" points="1600.25,-558 1181.75,-558 1181.75,-400 1600.25,-400 1600.25,-558"/>
<text text-anchor="middle" x="1391" y="-542.8" font-family="Times,serif" font-size="14.00">Esta es una buena llamada.</text>
<text text-anchor="middle" x="1391" y="-527.8" font-family="Times,serif" font-size="14.00"> &#160;&#160;&#160;Sin embargo te alentamos a probar,</text>
<text text-anchor="middle" x="1391" y="-512.8" font-family="Times,serif" font-size="14.00"> &#160;&#160;&#160;en una rama independiente, nuevas versiones de </text>
<text text-anchor="middle" x="1391" y="-497.8" font-family="Times,serif" font-size="14.00"> &#160;&#160;&#160;React tan pronto como son liberadas.</text>
<text text-anchor="middle" x="1391" y="-482.8" font-family="Times,serif" font-size="14.00"> &#160;&#160;&#160;A diferencia de muchos paquetes de la comunidad,</text>
<text text-anchor="middle" x="1391" y="-467.8" font-family="Times,serif" font-size="14.00">    que se ponen a prueba en gran medida por Facebook.</text>
<text text-anchor="middle" x="1391" y="-452.8" font-family="Times,serif" font-size="14.00"> &#160;&#160;&#160;Presta atención a las notas de la versión</text>
<text text-anchor="middle" x="1391" y="-437.8" font-family="Times,serif" font-size="14.00">    ya que suelen vincular a herramientas que</text>
<text text-anchor="middle" x="1391" y="-422.8" font-family="Times,serif" font-size="14.00">    permiten automatizan partes del </text>
<text text-anchor="middle" x="1391" y="-407.8" font-family="Times,serif" font-size="14.00"> &#160;&#160;&#160;proceso de migración por tí.</text>
</g>
<!-- do_you_update_packages_asap&#45;&gt;consider_updating_react -->
<g id="edge31" class="edge"><title>do_you_update_packages_asap&#45;&gt;consider_updating_react</title>
<path fill="none" stroke="black" d="M1120.6,-631.551C1155.9,-611.769 1200.37,-586.843 1243,-562.951"/>
<polygon fill="black" stroke="black" points="1244.77,-565.972 1251.78,-558.03 1241.34,-559.866 1244.77,-565.972"/>
<text text-anchor="middle" x="1210" y="-588.3" font-family="Times,serif" font-size="14.00">no</text>
</g>
<!-- can_you_spend_days_on_your_tooling&#45;&gt;do_you_update_packages_asap -->
<g id="edge27" class="edge"><title>can_you_spend_days_on_your_tooling&#45;&gt;do_you_update_packages_asap</title>
<path fill="none" stroke="black" d="M1237.86,-878.32C1195.01,-859.641 1149.22,-833.935 1115,-800 1095.59,-780.755 1081.21,-754.317 1071.13,-730.464"/>
<polygon fill="black" stroke="black" points="1074.34,-729.075 1067.34,-721.124 1067.85,-731.707 1074.34,-729.075"/>
<text text-anchor="middle" x="1121.5" y="-777.3" font-family="Times,serif" font-size="14.00">sí</text>
</g>
<!-- stick_to_es2015 -->
<g id="node20" class="node"><title>stick_to_es2015</title>
<polygon fill="none" stroke="black" points="1433.25,-800 1136.75,-800 1136.75,-762 1433.25,-762 1433.25,-800"/>
<text text-anchor="middle" x="1285" y="-784.8" font-family="Times,serif" font-size="14.00">Mantente usando ES2015, JSX, y </text>
<text text-anchor="middle" x="1285" y="-769.8" font-family="Times,serif" font-size="14.00"> &#160;&#160;&#160;el operador de expansión de objetos.</text>
</g>
<!-- can_you_spend_days_on_your_tooling&#45;&gt;stick_to_es2015 -->
<g id="edge28" class="edge"><title>can_you_spend_days_on_your_tooling&#45;&gt;stick_to_es2015</title>
<path fill="none" stroke="black" d="M1328.23,-858.91C1318.42,-841.453 1308.19,-823.256 1300.15,-808.947"/>
<polygon fill="black" stroke="black" points="1303.15,-807.155 1295.2,-800.153 1297.05,-810.585 1303.15,-807.155"/>
<text text-anchor="middle" x="1321" y="-822.3" font-family="Times,serif" font-size="14.00">no</text>
</g>
<!-- stick_to_es2015&#45;&gt;do_you_update_packages_asap -->
<g id="edge29" class="edge"><title>stick_to_es2015&#45;&gt;do_you_update_packages_asap</title>
<path fill="none" stroke="black" d="M1246,-761.923C1217.1,-748.527 1176.55,-729.732 1139.99,-712.787"/>
<polygon fill="black" stroke="black" points="1141.34,-709.553 1130.79,-708.523 1138.4,-715.904 1141.34,-709.553"/>
</g>
<!-- are_you_still_sad -->
<g id="node23" class="node"><title>are_you_still_sad</title>
<polygon fill="none" stroke="black" points="1213,-354 1078.7,-336 1213,-318 1347.3,-336 1213,-354"/>
<text text-anchor="middle" x="1213" y="-332.3" font-family="Times,serif" font-size="14.00">¿Aún estás triste?</text>
</g>
<!-- give_it_two_months&#45;&gt;are_you_still_sad -->
<g id="edge32" class="edge"><title>give_it_two_months&#45;&gt;are_you_still_sad</title>
<path fill="none" stroke="black" d="M1100.79,-392.322C1129.46,-378.184 1156.41,-364.901 1176.7,-354.895"/>
<polygon fill="black" stroke="black" points="1178.4,-357.959 1185.82,-350.398 1175.31,-351.681 1178.4,-357.959"/>
</g>
<!-- consider_updating_react&#45;&gt;are_you_still_sad -->
<g id="edge33" class="edge"><title>consider_updating_react&#45;&gt;are_you_still_sad</title>
<path fill="none" stroke="black" d="M1292.37,-399.871C1272.79,-384.362 1253.84,-369.351 1239.37,-357.888"/>
<polygon fill="black" stroke="black" points="1241.41,-355.038 1231.4,-351.572 1237.06,-360.525 1241.41,-355.038"/>
</g>
<!-- rant -->
<g id="node24" class="node"><title>rant</title>
<polygon fill="none" stroke="black" points="1227.5,-265.5 894.5,-265.5 894.5,-152.5 1227.5,-152.5 1227.5,-265.5"/>
<text text-anchor="middle" x="1061" y="-250.3" font-family="Times,serif" font-size="14.00">Escribe un artículo constructivo en un blog </text>
<text text-anchor="middle" x="1061" y="-235.3" font-family="Times,serif" font-size="14.00"> &#160;&#160;&#160;acerca de los problemas que encontraste.</text>
<text text-anchor="middle" x="1061" y="-220.3" font-family="Times,serif" font-size="14.00">    Abstente de hacer ataques personales.</text>
<text text-anchor="middle" x="1061" y="-205.3" font-family="Times,serif" font-size="14.00">    Sé cortés. Ayuda a la comunidad</text>
<text text-anchor="middle" x="1061" y="-190.3" font-family="Times,serif" font-size="14.00">    a encontrar las soluciones. Considera</text>
<text text-anchor="middle" x="1061" y="-175.3" font-family="Times,serif" font-size="14.00">    otras herramientas que mejor se adapten</text>
<text text-anchor="middle" x="1061" y="-160.3" font-family="Times,serif" font-size="14.00">    sus necesidades (por ejemplo, Ember).</text>
</g>
<!-- are_you_still_sad&#45;&gt;rant -->
<g id="edge34" class="edge"><title>are_you_still_sad&#45;&gt;rant</title>
<path fill="none" stroke="black" d="M1194.97,-320.17C1180.19,-308.022 1158.23,-289.957 1136.34,-271.953"/>
<polygon fill="black" stroke="black" points="1138.55,-269.246 1128.61,-265.597 1134.11,-274.653 1138.55,-269.246"/>
<text text-anchor="middle" x="1174.5" y="-288.3" font-family="Times,serif" font-size="14.00">sí</text>
</g>
<!-- happy -->
<g id="node25" class="node"><title>happy</title>
<polygon fill="none" stroke="black" points="1370.25,-114 1043.75,-114 1043.75,-76 1370.25,-76 1370.25,-114"/>
<text text-anchor="middle" x="1207" y="-98.8" font-family="Times,serif" font-size="14.00">¡React te hace feliz!</text>
<text text-anchor="middle" x="1207" y="-83.8" font-family="Times,serif" font-size="14.00"> &#160;&#160;&#160;O, por lo menos, ya no te pone tan triste.</text>
</g>
<!-- are_you_still_sad&#45;&gt;happy -->
<g id="edge35" class="edge"><title>are_you_still_sad&#45;&gt;happy</title>
<path fill="none" stroke="black" d="M1220,-318.923C1225.59,-305.172 1232.97,-284.696 1236,-266 1244.12,-215.988 1247.99,-201.227 1236,-152 1233.56,-141.973 1228.98,-131.738 1224.18,-122.808"/>
<polygon fill="black" stroke="black" points="1227.16,-120.982 1219.16,-114.037 1221.09,-124.456 1227.16,-120.982"/>
<text text-anchor="middle" x="1252" y="-205.3" font-family="Times,serif" font-size="14.00">no</text>
</g>
<!-- rant&#45;&gt;happy -->
<g id="edge36" class="edge"><title>rant&#45;&gt;happy</title>
<path fill="none" stroke="black" d="M1133.57,-152.328C1148.23,-141.087 1162.9,-129.829 1175.24,-120.364"/>
<polygon fill="black" stroke="black" points="1177.57,-122.985 1183.38,-114.121 1173.31,-117.431 1177.57,-122.985"/>
</g>
<!-- share -->
<g id="node26" class="node"><title>share</title>
<path fill="none" stroke="black" d="M1444.25,-38C1444.25,-38 969.75,-38 969.75,-38 963.75,-38 957.75,-32 957.75,-26 957.75,-26 957.75,-12 957.75,-12 957.75,-6 963.75,-0 969.75,-0 969.75,-0 1444.25,-0 1444.25,-0 1450.25,-0 1456.25,-6 1456.25,-12 1456.25,-12 1456.25,-26 1456.25,-26 1456.25,-32 1450.25,-38 1444.25,-38"/>
<text text-anchor="middle" x="1207" y="-22.8" font-family="Times,serif" font-size="14.00">Comparte este diagrama de flujo: http://bit.ly/react&#45;makes&#45;you&#45;sad.</text>
<text text-anchor="middle" x="1207" y="-7.8" font-family="Times,serif" font-size="14.00"> &#160;&#160;&#160;Basado e inspirado por https://github.com/petehunt/react&#45;howto.</text>
</g>
<!-- happy&#45;&gt;share -->
<g id="edge37" class="edge"><title>happy&#45;&gt;share</title>
<path fill="none" stroke="black" d="M1207,-75.7079C1207,-67.4635 1207,-57.5376 1207,-48.3622"/>
<polygon fill="black" stroke="black" points="1210.5,-48.0817 1207,-38.0817 1203.5,-48.0818 1210.5,-48.0817"/>
</g>
</g>
</svg>
